<svg xmlns="http://www.w3.org/2000/svg" width="272" height="49" viewBox="0 0 272 49"><rect width="100%" height="100%" fill="#DDDDDD"/><path fill="#999999" d="M94.22 30.76h4.64q.5 0 .79.29.29.28.29.74v1.85h-12.4v-1.03q0-.31.14-.65.13-.34.41-.62l5.49-5.5q.69-.7 1.23-1.34.55-.64.91-1.26.36-.63.56-1.27.19-.64.19-1.36 0-.65-.19-1.14-.19-.49-.53-.83-.34-.34-.82-.51-.49-.17-1.09-.17-.55 0-1.01.16-.47.16-.84.44-.36.28-.61.65-.25.38-.37.83-.22.57-.55.76-.34.19-.98.09l-1.62-.29q.18-1.3.72-2.28.54-.98 1.35-1.64.8-.65 1.85-.98 1.04-.34 2.24-.34 1.25 0 2.29.37 1.03.37 1.77 1.05.74.67 1.15 1.62.41.95.41 2.11 0 1-.29 1.85-.29.85-.79 1.63-.49.77-1.15 1.5-.67.72-1.39 1.47l-4.08 4.17q.59-.18 1.17-.27.58-.1 1.11-.1Zm8.04-15.19h12.48v1.33q0 .6-.12.97-.13.37-.25.62l-6.85 14.1q-.21.44-.6.74-.39.31-1.04.31h-2.24l6.99-13.81q.24-.43.47-.78.23-.36.52-.69h-8.65q-.29 0-.5-.21-.21-.21-.21-.5v-2.08Zm20.96 15.19h4.64q.5 0 .79.29.29.28.29.74v1.85h-12.4v-1.03q0-.31.14-.65.13-.34.41-.62l5.49-5.5q.69-.7 1.23-1.34.55-.64.91-1.26.36-.63.56-1.27.19-.64.19-1.36 0-.65-.19-1.14-.19-.49-.53-.83-.34-.34-.82-.51-.49-.17-1.09-.17-.55 0-1.01.16-.47.16-.84.44-.36.28-.61.65-.25.38-.37.83-.22.57-.55.76-.34.19-.98.09l-1.62-.29q.18-1.3.72-2.28.54-.98 1.35-1.64.8-.65 1.85-.98 1.04-.34 2.24-.34 1.25 0 2.29.37 1.03.37 1.77 1.05.74.67 1.15 1.62.41.95.41 2.11 0 1-.29 1.85-.29.85-.79 1.63-.49.77-1.15 1.5-.67.72-1.39 1.47l-4.08 4.17q.59-.18 1.17-.27.58-.1 1.11-.1Zm26.1-1.26-1.64 1.61-4.24-4.23-4.27 4.26-1.64-1.61 4.28-4.29-4.08-4.08 1.63-1.62 4.07 4.07 4.05-4.05 1.65 1.63-4.06 4.06 4.25 4.25Zm10.82-2.67h5.5v-5.92q0-.83.12-1.85l-5.62 7.77Zm8.19 0h2.28v1.78q0 .25-.17.44-.16.18-.46.18h-1.65v4.41h-2.69v-4.41h-7.62q-.31 0-.55-.2-.24-.19-.3-.48l-.33-1.56 8.57-11.44h2.92v11.28Zm7.04-5.84q0 1.51.78 2.31.78.79 2.22.79.75 0 1.34-.24.59-.24.98-.65.4-.41.61-.97.21-.57.21-1.22 0-.73-.23-1.31-.22-.59-.64-.99-.41-.4-.98-.61-.57-.21-1.24-.21-.7 0-1.26.23-.57.23-.97.64-.4.42-.61.99-.21.56-.21 1.24Zm-1.51 12.65 5.61-7.01q.21-.27.4-.52.19-.25.36-.5-.62.4-1.37.61-.75.21-1.58.21-.94 0-1.84-.33-.9-.32-1.6-.98-.7-.66-1.13-1.62-.43-.97-.43-2.27 0-1.22.45-2.28.45-1.06 1.26-1.86.82-.8 1.95-1.26 1.14-.47 2.52-.47 1.38 0 2.49.44 1.11.44 1.89 1.23.78.78 1.2 1.88.42 1.1.42 2.42 0 .83-.15 1.58-.14.75-.4 1.45-.27.69-.64 1.35-.38.67-.84 1.32l-4.13 5.9q-.22.3-.64.5-.43.21-.97.21h-2.83Z"/></svg>